<?xml version="1.0" encoding="UTF-8"?>
<svg width="512" height="512" viewBox="0 0 512 512" fill="none" xmlns="http://www.w3.org/2000/svg">
  <rect width="512" height="512" rx="256" fill="#F4C20D"/>
  <path d="M256 96C167.635 96 96 167.635 96 256C96 344.365 167.635 416 256 416C344.365 416 416 344.365 416 256C416 167.635 344.365 96 256 96ZM256 384C185.307 384 128 326.693 128 256C128 185.307 185.307 128 256 128C326.693 128 384 185.307 384 256C384 326.693 326.693 384 256 384Z" fill="white"/>
  <path d="M256 160C203.072 160 160 203.072 160 256C160 308.928 203.072 352 256 352C308.928 352 352 308.928 352 256C352 203.072 308.928 160 256 160ZM256 320C220.704 320 192 291.296 192 256C192 220.704 220.704 192 256 192C291.296 192 320 220.704 320 256C320 291.296 291.296 320 256 320Z" fill="white"/>
  <path d="M256 224C238.327 224 224 238.327 224 256C224 273.673 238.327 288 256 288C273.673 288 288 273.673 288 256C288 238.327 273.673 224 256 224Z" fill="white"/>
</svg>
